<svg width="324" height="71" viewBox="0 0 324 71" fill="none" xmlns="http://www.w3.org/2000/svg">
<path d="M110.719 15.4724H102.235L88.3951 54.9771H95.5008L98.4172 46.2809H114.537L117.507 54.9771H124.612L110.719 15.4724ZM100.379 40.395L106.477 22.4719L112.575 40.395H100.379ZM140.387 55.6136C146.485 55.6136 151.469 52.1137 153.166 47.4474L147.651 44.637C146.538 47.7656 143.886 49.7275 140.387 49.7275C135.72 49.7275 132.326 45.9096 132.326 40.713C132.326 35.4104 135.72 31.6455 140.387 31.6455C143.833 31.6455 146.538 33.6606 147.651 36.736L153.166 33.9787C151.416 29.1532 146.432 25.7596 140.387 25.7596C131.955 25.7596 125.698 32.1229 125.698 40.66C125.698 49.1973 132.008 55.6136 140.387 55.6136ZM168.78 25.7596C163.106 25.7596 158.333 28.7821 156.69 33.1302L162.204 35.8877C163.265 33.1833 165.704 31.4864 168.78 31.4864C171.961 31.4864 174.135 33.2363 174.135 35.8877V36.789L164.75 38.8042C158.97 40.0767 155.629 42.8871 155.629 47.1293C155.629 52.0077 159.659 55.6136 166.022 55.6136C169.469 55.6136 172.386 54.3408 174.507 51.7957V54.9771H180.499V35.8877C180.499 29.9486 175.726 25.7596 168.78 25.7596ZM166.765 50.576C164.007 50.576 162.257 49.2504 162.257 47.0763C162.257 45.3263 163.636 43.9477 166.022 43.4175L174.135 41.6145V43.4705C174.135 47.5004 171.007 50.576 166.765 50.576ZM207.55 15.4724V29.5775C205.536 27.1382 202.248 25.7596 198.43 25.7596C190.37 25.7596 184.007 32.2287 184.007 40.713C184.007 49.1443 190.264 55.6136 198.483 55.6136C202.301 55.6136 205.747 54.1819 207.869 51.6366V54.9771H213.915V15.4724H207.55ZM199.119 49.7275C194.188 49.7275 190.635 45.9626 190.635 40.713C190.635 35.4634 194.188 31.6455 199.119 31.6455C203.998 31.6455 207.55 35.4634 207.55 40.713C207.55 46.0157 203.998 49.7275 199.119 49.7275ZM246.389 39.6526C246.389 32.0698 240.661 25.7596 232.6 25.7596C224.542 25.7596 218.442 32.0698 218.442 40.66C218.442 49.0382 224.435 55.6136 233.078 55.6136C238.911 55.6136 243.578 52.6442 245.328 48.561L240.078 46.0157C238.804 48.3489 236.526 49.9927 233.131 49.9927C228.731 49.9927 225.389 47.0763 225.072 42.516H246.069C246.282 41.6676 246.389 40.66 246.389 39.6526ZM225.176 37.5844C225.92 33.3954 228.889 31.0622 232.6 31.0622C236.261 31.0622 239.335 33.7665 239.548 37.5844H225.176ZM281.77 25.7596C277.846 25.7596 274.557 27.5626 272.861 30.479C271.059 27.5095 267.929 25.7596 264.112 25.7596C260.664 25.7596 257.907 27.1913 256.423 29.8958V26.3959H250.432V54.9771H256.794V38.0088C256.794 34.0317 259.02 31.6455 262.362 31.6455C265.755 31.6455 267.983 34.0317 267.983 38.0088V54.9771H274.346V38.0088C274.346 34.0317 276.626 31.6455 279.968 31.6455C283.361 31.6455 285.587 34.0317 285.587 38.0088V54.9771H291.95V36.4179C291.95 30.0547 287.709 25.7596 281.77 25.7596ZM316.71 26.3959L309.021 46.5991L301.332 26.3959H294.385L305.626 54.8713L304.671 57.0984C303.93 58.8481 302.976 60.9693 299.317 60.9693C298.202 60.9693 296.824 60.7572 296.028 60.545V65.9007C297.195 66.4309 298.68 66.6431 300.217 66.6431C307.43 66.6431 309.656 61.4465 310.93 58.3179L323.656 26.3959H316.71Z" fill="white"/>
<path d="M35.5 71C55.106 71 71 55.106 71 35.5C71 15.8939 55.106 0 35.5 0C15.8939 0 0 15.8939 0 35.5C0 55.106 15.8939 71 35.5 71Z" fill="white"/>
<path fill-rule="evenodd" clip-rule="evenodd" d="M33.3159 17.3548C35.0414 19.0805 35.0414 21.8783 33.3159 23.6041L23.3811 33.5388C21.6554 35.2643 18.8576 35.2643 17.1319 33.5388C15.4062 31.8131 15.4062 29.0153 17.1319 27.2896L27.0667 17.3548C28.7924 15.6291 31.5902 15.6291 33.3159 17.3548Z" fill="#3434FF"/>
<path fill-rule="evenodd" clip-rule="evenodd" d="M52.0271 19.6275C53.7528 21.3533 53.7528 24.1511 52.0271 25.8768L25.6535 52.2504C23.9278 53.9761 21.1299 53.9761 19.4042 52.2504C17.6786 50.5247 17.6786 47.7268 19.4042 46.0011L45.7778 19.6275C47.5035 17.9018 50.3013 17.9018 52.0271 19.6275Z" fill="#3434FF"/>
<path fill-rule="evenodd" clip-rule="evenodd" d="M54.3006 38.3378C56.0263 40.0636 56.0263 42.8614 54.3006 44.5871L44.365 54.5229C42.6392 56.2486 39.8414 56.2486 38.1157 54.5229C36.39 52.7972 36.39 49.9994 38.1157 48.2737L48.0515 38.3378C49.777 36.6123 52.5751 36.6123 54.3006 38.3378Z" fill="#3434FF"/>
</svg>
