<svg width="26" height="26" viewBox="0 0 26 26" fill="none" xmlns="http://www.w3.org/2000/svg">
<path d="M6.10352 20.5574H17.3535C17.7553 20.5575 18.1442 20.4212 18.4511 20.1727C18.7581 19.9243 18.9634 19.5798 19.0306 19.2001L22.0209 2.35621C22.0884 1.97678 22.2938 1.63247 22.6007 1.38425C22.9077 1.13604 23.2964 0.99992 23.698 1H24.8138" stroke="#202058" stroke-width="1.5" stroke-linecap="round" stroke-linejoin="round"/>
<path d="M16.734 24.1851C16.8181 24.1851 16.9003 24.209 16.9703 24.2538C17.0402 24.2986 17.0947 24.3622 17.1269 24.4367C17.1591 24.5111 17.1675 24.5931 17.1511 24.6721C17.1347 24.7512 17.0942 24.8238 17.0347 24.8808C16.9752 24.9378 16.8995 24.9766 16.817 24.9923C16.7345 25.008 16.649 25 16.5713 24.9691C16.4936 24.9383 16.4272 24.8861 16.3804 24.819C16.3337 24.752 16.3088 24.6732 16.3088 24.5926C16.3088 24.4846 16.3536 24.3809 16.4333 24.3045C16.5131 24.2281 16.6212 24.1851 16.734 24.1851Z" stroke="#202058" stroke-width="2" stroke-linecap="round" stroke-linejoin="round"/>
<path d="M8.22967 24.1851C8.31377 24.1851 8.39599 24.209 8.46592 24.2538C8.53584 24.2986 8.59035 24.3622 8.62253 24.4367C8.65472 24.5111 8.66314 24.5931 8.64673 24.6721C8.63032 24.7512 8.58982 24.8238 8.53035 24.8808C8.47088 24.9378 8.39511 24.9766 8.31263 24.9923C8.23014 25.008 8.14464 25 8.06694 24.9691C7.98924 24.9383 7.92283 24.8861 7.8761 24.819C7.82937 24.752 7.80444 24.6732 7.80444 24.5926C7.80444 24.4846 7.84924 24.3809 7.92898 24.3045C8.00873 24.2281 8.11689 24.1851 8.22967 24.1851Z" stroke="#202058" stroke-width="2" stroke-linecap="round" stroke-linejoin="round"/>
<path d="M19.6575 15.6672H5.96947C5.21094 15.6672 4.4742 15.4241 3.87632 14.9768C3.27844 14.5294 2.85373 13.9034 2.66966 13.1982L1.02542 6.89538C0.994045 6.77517 0.991681 6.6497 1.01851 6.52849C1.04533 6.40728 1.10064 6.29353 1.18024 6.19588C1.25983 6.09823 1.3616 6.01926 1.47782 5.96497C1.59404 5.91068 1.72165 5.8825 1.85094 5.88257H21.3936" stroke="#202058" stroke-width="1.5" stroke-linecap="round" stroke-linejoin="round"/>
</svg>
