<svg width="71" height="71" viewBox="0 0 71 71" fill="none" xmlns="http://www.w3.org/2000/svg">
<path d="M35.5 71C55.106 71 71 55.106 71 35.5C71 15.8939 55.106 0 35.5 0C15.8939 0 0 15.8939 0 35.5C0 55.106 15.8939 71 35.5 71Z" fill="#3434FF"/>
<path fill-rule="evenodd" clip-rule="evenodd" d="M33.3159 17.3548C35.0414 19.0805 35.0414 21.8783 33.3159 23.6041L23.3811 33.5388C21.6554 35.2643 18.8576 35.2643 17.1319 33.5388C15.4062 31.8131 15.4062 29.0153 17.1319 27.2896L27.0667 17.3548C28.7924 15.6291 31.5902 15.6291 33.3159 17.3548Z" fill="white"/>
<path fill-rule="evenodd" clip-rule="evenodd" d="M52.0271 19.6275C53.7528 21.3533 53.7528 24.1511 52.0271 25.8768L25.6535 52.2504C23.9278 53.9761 21.1299 53.9761 19.4042 52.2504C17.6786 50.5247 17.6786 47.7268 19.4042 46.0011L45.7778 19.6275C47.5035 17.9018 50.3013 17.9018 52.0271 19.6275Z" fill="white"/>
<path fill-rule="evenodd" clip-rule="evenodd" d="M54.3006 38.3378C56.0263 40.0636 56.0263 42.8614 54.3006 44.5871L44.365 54.5229C42.6392 56.2486 39.8414 56.2486 38.1157 54.5229C36.39 52.7972 36.39 49.9994 38.1157 48.2737L48.0515 38.3378C49.777 36.6123 52.5751 36.6123 54.3006 38.3378Z" fill="white"/>
</svg>
